<?xml version="1.0" encoding="UTF-8"?>
<svg version="1.1" xmlns="http://www.w3.org/2000/svg" width="1271" height="1271">
<path d="M0 0 C419.43 0 838.86 0 1271 0 C1271 419.43 1271 838.86 1271 1271 C851.57 1271 432.14 1271 0 1271 C0 851.57 0 432.14 0 0 Z " fill="#000000" transform="translate(0,0)"/>
<path d="M0 0 C419.43 0 838.86 0 1271 0 C1271 419.43 1271 838.86 1271 1271 C851.57 1271 432.14 1271 0 1271 C0 851.57 0 432.14 0 0 Z M677 23 C671.55205472 30.64243377 669.69543514 38.32008094 669.73257446 47.550354 C669.72804335 48.38570199 669.72351224 49.22104997 669.71884382 50.08171153 C669.70623242 52.86735688 669.70781808 55.65280591 669.70947266 58.43847656 C669.70348534 60.44134267 669.69667932 62.44420648 669.68911743 64.44706726 C669.67147012 69.87904865 669.66676256 75.310967 669.66548586 80.74297428 C669.66406289 84.13969895 669.65979049 87.53640766 669.65449142 90.93312836 C669.63599474 102.79185501 669.62782029 114.65053674 669.62939453 126.50927734 C669.63059555 137.54908984 669.60949993 148.5887067 669.5779072 159.62846971 C669.55172138 169.11831016 669.54102822 178.60808681 669.54230535 188.09796309 C669.54281434 193.76063273 669.53716599 199.4231285 669.51594925 205.08576202 C669.49652833 210.4144747 669.49646887 215.74284834 669.51098251 221.07157326 C669.51306698 223.02138326 669.50839146 224.9712147 669.4962616 226.92098808 C669.41729091 240.50015298 669.98716903 252.59228619 679.90234375 262.99609375 C688.57406063 271.30204401 697.03833332 273.61498804 708.87548828 273.45410156 C710.0181163 273.45468567 711.16074432 273.45526978 712.33799744 273.45587158 C716.08242081 273.45310403 719.82602967 273.42207355 723.5703125 273.390625 C726.17918462 273.38315792 728.78806238 273.3774672 731.39694214 273.37347412 C737.54141765 273.36109437 743.68560486 273.3283416 749.82995403 273.28807616 C756.83122102 273.2432015 763.83250255 273.22133219 770.8338778 273.20129442 C785.22276486 273.15960359 799.61131306 273.08631486 814 273 C814 281.58 814 290.16 814 299 C790.86850604 299.19375241 767.73797439 299.31295137 744.60564041 299.33421898 C733.86396482 299.34595708 723.12357337 299.3837087 712.38232422 299.48339844 C703.01656615 299.57025546 693.65212013 299.60759275 684.28596091 299.58627188 C679.32914725 299.57669659 674.3751592 299.59136745 669.41883087 299.66541672 C664.74550426 299.73445358 660.07670582 299.73686706 655.40315056 299.68990898 C653.69556152 299.68417822 651.98769055 299.70203618 650.28066444 299.74625206 C636.77379557 300.07496949 636.77379557 300.07496949 631.4300766 295.00151443 C628.7896443 292.11378013 626.49886759 289.03743267 624.28664541 285.81434178 C622.19274575 282.86166374 619.81057084 280.16647734 617.4375 277.4375 C616.52707897 276.36330518 615.61803553 275.28793988 614.7109375 274.2109375 C614.26331055 273.68081055 613.81568359 273.15068359 613.35449219 272.60449219 C612.4514974 271.53483073 611.5485026 270.46516927 610.64550781 269.39550781 C605.45204183 263.24485876 600.24361487 257.1079841 595 251 C591.09282377 246.4470929 587.19231452 241.8887613 583.3125 237.3125 C582.85528564 236.77351074 582.39807129 236.23452148 581.92700195 235.67919922 C579.12804281 232.3679958 576.39738432 229.0098555 573.6875 225.625 C554.09931045 201.61367088 531.04182187 180.93318204 499.02232361 177.40192604 C488.27506807 176.41717397 477.42308595 176.71399924 466.64257812 176.7253418 C463.89773632 176.72207666 461.15290277 176.71586598 458.4080658 176.70985413 C451.76068875 176.69718376 445.11335224 176.69530367 438.46596515 176.69765439 C433.05791774 176.69944586 427.64988251 176.69767027 422.24183655 176.69342995 C421.46874744 176.69283476 420.69565834 176.69223957 419.8991423 176.69162634 C418.32806154 176.69041446 416.75698078 176.68920032 415.18590003 176.68798397 C400.49369451 176.67713858 385.801512 176.67925702 371.1093052 176.68536881 C357.69982679 176.69053887 344.290421 176.67927481 330.88095695 176.66027059 C317.07161476 176.64085142 303.26230687 176.6326431 289.45295095 176.63639385 C281.7161733 176.63829925 273.97945747 176.63588284 266.24269104 176.62167931 C259.65846107 176.60971257 253.07433103 176.60841973 246.49009955 176.62046947 C243.13810861 176.62632052 239.78644812 176.6259072 236.43444633 176.61546707 C204.66621371 176.5237018 178.0719383 182.26930515 154.8203125 205.1484375 C153.87874187 206.0975057 152.93850657 207.04790173 152 208 C151.27554688 208.71414062 150.55109375 209.42828125 149.8046875 210.1640625 C127.45031081 233.60448178 117.62179228 266.76233698 117.74831772 298.52153015 C117.74541084 299.81327687 117.74250396 301.1050236 117.73950899 302.43591416 C117.73178501 305.99358893 117.73634666 309.55115385 117.74306489 313.10882665 C117.74816798 316.98991656 117.74160677 320.87099046 117.73657823 324.75207806 C117.72937375 331.54506997 117.72956233 338.33803005 117.73467255 345.13102341 C117.74225101 355.23260347 117.73836302 365.33415679 117.73225593 375.43573669 C117.72173317 393.47924627 117.72263376 411.52274169 117.72841376 429.56625262 C117.73344706 445.35653769 117.73475725 461.14681756 117.73236847 476.93710327 C117.7322157 477.98496003 117.73206293 479.03281679 117.73190553 480.11242678 C117.73128284 484.36613707 117.73064604 488.61984736 117.729986 492.87355764 C117.72386952 532.7676113 117.72941252 572.66165594 117.7401798 612.55570821 C117.74967083 647.99059416 117.74882157 683.42546574 117.73925781 718.86035156 C117.72854599 758.68195853 117.72430332 798.50355754 117.73048234 838.32516575 C117.73112376 842.57107607 117.73174945 846.8169864 117.73236847 851.06289673 C117.73252662 852.10832987 117.73268478 853.153763 117.73284773 854.23087593 C117.73512161 870.01031393 117.73246409 885.78974615 117.72740936 901.56918335 C117.7216899 919.51308411 117.72312255 937.4569685 117.73397085 955.40086722 C117.73984043 965.44047533 117.74023107 975.48004796 117.7326785 985.51965513 C117.72818821 992.22915167 117.73099487 998.93861981 117.73968804 1005.64811215 C117.74443685 1009.46855935 117.74609052 1013.28893615 117.73887607 1017.10938108 C117.73116975 1021.23246885 117.73903934 1025.35538534 117.74831772 1029.47846985 C117.74363539 1030.65378364 117.73895305 1031.82909743 117.73412883 1033.04002678 C117.88804854 1067.29759667 131.66197492 1099.04700335 155.3125 1123.625 C160.14760213 1128.33548609 165.41152101 1132.23158518 171 1136 C171.74378906 1136.52335937 172.48757812 1137.04671875 173.25390625 1137.5859375 C178.62020875 1141.1136981 184.33466806 1143.47821138 190.3125 1145.75 C191.07046875 1146.04398682 191.8284375 1146.33797363 192.609375 1146.64086914 C204.02126518 1150.79644256 215.71616658 1151.2946546 227.75160694 1151.25447559 C229.20300474 1151.25687067 230.6544013 1151.2601392 232.10579541 1151.26419219 C236.07518451 1151.27276413 240.04447833 1151.26900587 244.01386876 1151.26313647 C248.33956262 1151.25895006 252.6652396 1151.26637721 256.99092931 1151.27228898 C264.56614804 1151.28103876 272.14133974 1151.28236744 279.71656227 1151.27878571 C290.98142733 1151.27347352 302.24626626 1151.2795792 313.51112848 1151.28786864 C334.80142426 1151.30310491 356.09170814 1151.3048141 377.38200823 1151.30234561 C393.82273481 1151.30051262 410.26345749 1151.30227269 426.70418358 1151.30657005 C429.06660713 1151.30717245 431.42903067 1151.30777365 433.79145422 1151.30837366 C437.35144211 1151.30928091 440.91143001 1151.31018958 444.4714179 1151.31110601 C477.56816882 1151.31953498 510.66491827 1151.3238716 543.76167011 1151.31969929 C545.63300294 1151.31946472 545.63300294 1151.31946472 547.54214047 1151.31922542 C553.86517646 1151.31841964 560.18821246 1151.31757387 566.51124845 1151.31671212 C567.76701289 1151.31654103 569.02277733 1151.31636994 570.31659524 1151.31619367 C572.85605526 1151.31584702 575.39551527 1151.31549849 577.93497528 1151.31514808 C617.4513693 1151.30979056 656.967741 1151.31772243 696.48413086 1151.33618164 C740.88624059 1151.35689884 785.28833649 1151.36762492 829.69045132 1151.36360615 C834.42509059 1151.36321081 839.15972986 1151.36284926 843.89436913 1151.36250877 C845.06014801 1151.36241804 846.22592689 1151.36232731 847.42703241 1151.36223383 C865.02306498 1151.36106802 882.6190836 1151.3677149 900.21511269 1151.37832069 C920.22712626 1151.39037042 940.23910908 1151.39193422 960.25112311 1151.37953053 C971.44786985 1151.37290117 982.64454307 1151.37453481 993.84128394 1151.38811904 C1001.32468422 1151.39636535 1008.80802944 1151.3936636 1016.29142524 1151.38214377 C1020.55228946 1151.37588924 1024.81301025 1151.37428169 1029.07386617 1151.38600711 C1032.95870506 1151.39659908 1036.84327993 1151.3931046 1040.72810498 1151.37890258 C1042.76552003 1151.37493525 1044.80294809 1151.38551107 1046.84033528 1151.39687964 C1069.68116567 1151.26366973 1091.56461346 1144.07126633 1109 1129 C1109.94617187 1128.19820312 1110.89234375 1127.39640625 1111.8671875 1126.5703125 C1132.8770558 1108.34378842 1145.31568795 1082.93959064 1151 1056 C1151.26244272 1054.80253081 1151.26244272 1054.80253081 1151.53018731 1053.58087033 C1153.7547403 1041.63424515 1153.28044363 1029.51626897 1153.26069641 1017.41279602 C1153.26371894 1014.79103063 1153.26760893 1012.16926613 1153.27228898 1009.54750317 C1153.28102263 1003.85893024 1153.28237322 998.17039331 1153.27878571 992.48181534 C1153.27346483 984.02225363 1153.27958794 975.5627266 1153.28786864 967.10316866 C1153.3030912 951.11281501 1153.30481547 935.12247722 1153.30234561 919.13211785 C1153.30051127 906.78132092 1153.30227553 894.43052917 1153.30657005 882.07973289 C1153.30717246 880.30380222 1153.30777366 878.52787155 1153.30837366 876.75194087 C1153.30928093 874.07560096 1153.3101896 871.39926105 1153.31110601 868.72292114 C1153.31953306 843.8461481 1153.32387298 818.969377 1153.31969929 794.09260273 C1153.31954291 793.15521574 1153.31938654 792.21782876 1153.31922542 791.25203611 C1153.31841967 786.50125483 1153.3175739 781.75047356 1153.31671212 776.9996923 C1153.31654103 776.05621464 1153.31636994 775.11273698 1153.31619367 774.14066909 C1153.31584701 772.23272866 1153.31549848 770.32478822 1153.31514808 768.41684778 C1153.30979197 738.73532492 1153.31771919 709.05383177 1153.33618164 679.37231445 C1153.35691266 646.00481844 1153.3676222 612.63734084 1153.36360615 579.26983804 C1153.36321083 575.709674 1153.36284928 572.14950997 1153.36250877 568.58934593 C1153.36241804 567.71278035 1153.36232731 566.83621476 1153.36223383 565.93308658 C1153.36106941 552.71884981 1153.36770434 539.50463167 1153.37832069 526.29039955 C1153.39038775 511.25537493 1153.39191437 496.22039126 1153.37953053 481.18536601 C1153.37291623 472.7795929 1153.37449986 464.37391778 1153.38811904 455.96815256 C1153.39639524 450.34258356 1153.39362507 444.71708756 1153.38214377 439.09152442 C1153.37591852 435.89338652 1153.37588813 432.69547517 1153.38600711 429.49734179 C1153.5022843 389.98907311 1143.3457948 355.15916036 1115.625 326.1875 C1101.68856503 312.74386683 1084.82417914 304.05831877 1066 300 C1065.28803624 299.82322 1064.57607248 299.64643999 1063.84253407 299.46430302 C1059.99726714 298.83621238 1056.19667338 298.86584952 1052.31242371 298.87974548 C1051.43835493 298.87889106 1050.56428615 298.87803663 1049.66373044 298.87715632 C1046.73567899 298.87550955 1043.80768485 298.88100977 1040.87963867 298.88647461 C1038.78040569 298.88675668 1036.68117262 298.88659836 1034.5819397 298.8860321 C1028.88199571 298.88574491 1023.18207273 298.89162915 1017.48213363 298.89860606 C1011.52571325 298.90485247 1005.56929241 298.90544442 999.61286926 298.90663147 C988.33304554 298.90974098 977.0532315 298.91794926 965.77341205 298.92798096 C952.93194558 298.93915388 940.09047865 298.94465552 927.24900854 298.94967639 C900.83266681 298.96013217 874.41633435 298.97792545 848 299 C848 290.42 848 281.84 848 273 C853.18456909 273.0314209 853.18456909 273.0314209 858.47387695 273.06347656 C869.91707297 273.12987233 881.36029597 273.1741899 892.80363178 273.20724869 C899.73906123 273.22781973 906.67430739 273.25583483 913.60961914 273.30175781 C920.30751745 273.34608736 927.00518638 273.36916442 933.70323753 273.37950897 C936.25360287 273.38687729 938.80395828 273.40126574 941.35424232 273.42292023 C944.93731467 273.45212333 948.51961025 273.4559488 952.1027832 273.45410156 C953.67048965 273.47567322 953.67048965 273.47567322 955.26986694 273.49768066 C966.56823467 273.43500092 974.82942951 270.08222049 982.90625 262.22265625 C993.23200715 251.26117151 992.43636553 238.33155939 992.38818359 224.20507812 C992.39225333 222.20014663 992.39759746 220.19521739 992.40411377 218.19029236 C992.41774529 212.76677599 992.41250591 207.34343157 992.40297651 201.91991234 C992.39535833 196.23245164 992.40243151 190.54500525 992.40713501 184.85754395 C992.41258627 175.30816008 992.40541745 165.75884593 992.39111328 156.20947266 C992.37478802 145.18380347 992.38007697 134.15830074 992.3965925 123.13263559 C992.41022528 113.65038842 992.41211826 104.16819122 992.40427649 94.6859374 C992.39960984 89.02953458 992.39894738 83.37320988 992.40888596 77.71681213 C992.4175794 72.39794216 992.41149024 67.07928591 992.39420319 61.76043892 C992.39025105 59.81344011 992.39135047 57.86642318 992.39799118 55.91943169 C992.44393327 41.0762933 991.72515435 30.35657999 981.21875 19.08984375 C973.10657496 11.26026497 963.56133745 9.39433331 952.60813904 9.49206543 C951.51548754 9.48582547 950.42283605 9.4795855 949.2970739 9.47315645 C945.66454009 9.45730196 942.03268434 9.46980162 938.40014648 9.48242188 C935.78423677 9.47699747 933.1683301 9.46987302 930.5524292 9.46118164 C924.20244387 9.44345693 917.85264836 9.44720905 911.5026558 9.4588322 C906.33946801 9.46788941 901.17633319 9.46908068 896.01313972 9.46473694 C895.27649589 9.46412401 894.53985206 9.46351107 893.78088569 9.46287957 C892.28412086 9.46160059 890.78735604 9.46030373 889.29059125 9.4589892 C875.27765179 9.44760134 861.26481726 9.46066928 847.25189502 9.48219067 C835.2428287 9.50006377 823.23391705 9.49695236 811.22485352 9.47851562 C797.25831323 9.45708356 783.29186472 9.4486959 769.32531029 9.46096468 C767.83455504 9.4622388 766.34379978 9.46349628 764.85304451 9.46473694 C763.75299633 9.46566259 763.75299633 9.46566259 762.63072495 9.46660694 C757.47659214 9.47005257 752.32251783 9.46424862 747.16839409 9.45481873 C740.22516611 9.44239396 733.2822344 9.45130765 726.33903503 9.47439575 C723.79377794 9.47967639 721.24849622 9.47818018 718.70324898 9.46934509 C715.22346248 9.4583813 711.74460496 9.47216483 708.26487732 9.49206543 C707.26262586 9.48314254 706.26037439 9.47421966 705.22775167 9.46502638 C693.32606458 9.59664983 684.91963214 14.23635733 677 23 Z " fill="#FD5A08" transform="translate(0,0)"/>
<path d="M0 0 C0.97119877 -0.00445668 0.97119877 -0.00445668 1.96201771 -0.0090034 C4.14145472 -0.0177065 6.32083689 -0.0192 8.50028992 -0.02069092 C10.05895607 -0.02531798 11.6176211 -0.03034249 13.17628479 -0.03573608 C17.4181019 -0.04887347 21.65990317 -0.05530773 25.90173745 -0.05974674 C28.55078804 -0.0626755 31.19983427 -0.06677995 33.84888268 -0.07125092 C42.13397048 -0.0849298 50.41904837 -0.09459436 58.70414668 -0.09845281 C68.27383462 -0.10293372 77.84337974 -0.12048147 87.41302425 -0.1494534 C94.80586583 -0.17105945 102.19866721 -0.18115652 109.59154004 -0.18249393 C114.00881922 -0.18354279 118.42596423 -0.18946779 122.84321022 -0.20731354 C126.99891178 -0.2237755 131.15437804 -0.22595892 135.31010056 -0.21717453 C136.83510022 -0.21640313 138.36011243 -0.22076049 139.88508034 -0.23063278 C141.9679386 -0.24332546 144.0499601 -0.23749095 146.1328125 -0.22705078 C147.29812657 -0.22851734 148.46344065 -0.2299839 149.66406727 -0.2314949 C154.42168392 0.34064828 157.57787309 2.4846225 160.50688171 6.20294189 C163.1649966 9.67325855 163.88125743 11.11026779 163.89110279 15.35220718 C163.89556063 16.24075496 163.90001848 17.12930274 163.90461141 18.0447762 C163.90442705 19.02704962 163.90424268 20.00932303 163.90405273 21.0213623 C163.90772942 22.06014361 163.91140611 23.09892492 163.91519421 24.16918445 C163.92626534 27.67295485 163.93008069 31.17669564 163.93388367 34.68048096 C163.9401457 37.18332515 163.94679226 39.6861684 163.95379639 42.18901062 C163.97304929 49.71663358 163.98362835 57.24425136 163.99252418 64.77189267 C163.99690576 68.31558834 164.00227292 71.85928251 164.00751305 75.40297699 C164.02452656 87.18113012 164.03902098 98.9592823 164.04626179 110.73744583 C164.04817173 113.79479219 164.05009205 116.85213854 164.05204773 119.90948486 C164.05253147 120.66938676 164.05301521 121.42928867 164.05351361 122.2122179 C164.06181483 134.52358351 164.08715272 146.83485199 164.11962841 159.14617518 C164.15268886 171.78206809 164.17070964 184.41791163 164.17390603 197.05384803 C164.17607212 204.15003718 164.18483505 211.24608471 164.2103672 218.34223175 C164.23432719 225.01690925 164.23790628 231.69128761 164.22760582 238.36601448 C164.22710884 240.81781677 164.23347683 243.26963135 164.24716187 245.72139549 C164.26478328 249.06510127 164.25782192 252.40788144 164.24462891 255.75158691 C164.25559815 256.72493744 164.2665674 257.69828797 164.27786905 258.70113397 C164.22382327 264.36324953 163.57463153 267.66737971 159.75688171 272.14044189 C155.00790023 276.42610811 151.79152436 277.26408603 145.4828949 277.28761292 C143.51034981 277.29834587 143.51034981 277.29834587 141.49795532 277.30929565 C140.03706383 277.31213591 138.57617209 277.31484764 137.11528015 277.31744385 C135.57941535 277.32370916 134.04355206 277.33035602 132.50769043 277.33735657 C127.46055658 277.35839143 122.41342245 277.36875846 117.36625671 277.37872314 C115.6282525 277.38277092 113.89024845 277.38688785 112.15224457 277.39107323 C103.98676049 277.41012369 95.82128544 277.42435499 87.65578341 277.4326852 C78.23267305 277.4424573 68.8097976 277.46877664 59.38677001 277.50918609 C52.1017327 277.53935408 44.8167627 277.55415472 37.53166413 277.55746621 C33.18135547 277.55981594 28.83129782 277.56876626 24.48105621 277.59392738 C20.38684252 277.61722515 16.2930448 277.62143464 12.19878197 277.611166 C10.69880222 277.61067094 9.19880187 277.61698273 7.69888496 277.63072205 C-6.40733592 277.75267223 -6.40733592 277.75267223 -12.24311829 273.14044189 C-15.65635026 269.36792234 -17.36560063 266.98639054 -17.37733936 261.92867661 C-17.38179721 261.04012883 -17.38625505 260.15158105 -17.39084798 259.23610759 C-17.39066362 258.25383417 -17.39047926 257.27156076 -17.39028931 256.25952148 C-17.39396599 255.22074018 -17.39764268 254.18195887 -17.40143079 253.11169934 C-17.41250191 249.60792893 -17.41631726 246.10418814 -17.42012024 242.60040283 C-17.42638227 240.09755864 -17.43302883 237.59471539 -17.44003296 235.09187317 C-17.45928586 227.5642502 -17.46986492 220.03663243 -17.47876075 212.50899112 C-17.48314233 208.96529545 -17.48850949 205.42160128 -17.49374962 201.8779068 C-17.51076313 190.09975367 -17.52525756 178.32160149 -17.53249836 166.54343796 C-17.5344083 163.4860916 -17.53632862 160.42874525 -17.5382843 157.37139893 C-17.53876804 156.61149702 -17.53925178 155.85159512 -17.53975018 155.06866589 C-17.54805141 142.75730028 -17.57338929 130.4460318 -17.60586498 118.13470861 C-17.63892544 105.4988157 -17.65694622 92.86297216 -17.6601426 80.22703576 C-17.66230869 73.1308466 -17.67107162 66.03479908 -17.69660378 58.93865204 C-17.72056376 52.26397453 -17.72414285 45.58959618 -17.71384239 38.91486931 C-17.71334541 36.46306702 -17.7197134 34.01125244 -17.73339844 31.5594883 C-17.75101986 28.21578252 -17.7440585 24.87300235 -17.73086548 21.52929688 C-17.74731935 20.06927108 -17.74731935 20.06927108 -17.76410562 18.57974982 C-17.7100754 12.91926465 -17.06436386 9.60940291 -13.24311829 5.14044189 C-8.55543962 1.01082021 -6.20541814 0.01585578 0 0 Z " fill="#FD3D0A" transform="translate(820.2431182861328,709.8595581054688)"/>
<path d="M0 0 C0.64125798 -0.00235223 1.28251597 -0.00470446 1.94320601 -0.00712797 C4.10661804 -0.013821 6.26997005 -0.01335966 8.43339157 -0.01294994 C9.99429216 -0.01624837 11.55519189 -0.0199739 13.11609054 -0.02409142 C17.41699596 -0.0341218 21.71788742 -0.03782988 26.01880288 -0.04048073 C30.6528802 -0.04438067 35.28694644 -0.05395917 39.92101669 -0.0626936 C51.11752126 -0.08246601 62.31402675 -0.09252486 73.51054442 -0.10142139 C78.78051985 -0.10580271 84.05049427 -0.11116989 89.3204689 -0.11641026 C106.83415264 -0.13342273 124.34783575 -0.14791781 141.86152649 -0.155159 C146.40751522 -0.15706895 150.95350394 -0.15898928 155.49949265 -0.16094494 C156.62940297 -0.16142868 157.75931329 -0.16191242 158.92346331 -0.16241082 C177.23501107 -0.17071448 195.54649357 -0.196057 213.85801283 -0.22852562 C232.64911913 -0.26157357 251.44019225 -0.27960568 270.23132777 -0.28280324 C280.78551196 -0.28497035 291.33960096 -0.29374851 301.89375687 -0.31926441 C310.88047197 -0.34094043 319.86706878 -0.34903709 328.85380706 -0.33929763 C333.43999106 -0.33474403 338.02593082 -0.33670059 342.61208153 -0.35605907 C346.8104607 -0.37362793 351.00841632 -0.37274437 355.2067996 -0.35716178 C356.72567207 -0.35477614 358.24457339 -0.35915869 359.76340166 -0.37099043 C373.86994356 -0.47407505 373.86994356 -0.47407505 379.73142624 4.13422108 C384.8212653 9.36162336 385.97788334 14.76839488 386.00608444 21.91473866 C386.01375084 22.88923214 386.01375084 22.88923214 386.02157211 23.88341236 C386.03538706 26.01528805 386.03451714 28.14683739 386.03220749 30.27875233 C386.03609968 31.77319424 386.04043543 33.26763506 386.04519272 34.76207447 C386.05263813 37.88982196 386.05237648 41.01745655 386.04710007 44.14520741 C386.04131631 48.13285747 386.05821778 52.12004141 386.08144474 56.10761452 C386.09625439 59.19363021 386.09704386 62.27953562 386.09393501 65.36558056 C386.09444489 66.8346362 386.09961923 68.30369856 386.10974693 69.77271938 C386.21851741 87.7595067 386.21851741 87.7595067 381.01267624 94.29047108 C380.42486374 94.73390858 379.83705124 95.17734608 379.23142624 95.63422108 C378.64361374 96.09828358 378.05580124 96.56234608 377.45017624 97.04047108 C373.83421275 99.34153875 370.62885312 99.26111811 366.46005917 99.26564884 C365.81850159 99.26770148 365.176944 99.26975411 364.51594529 99.27186894 C362.35152173 99.27755402 360.18716151 99.27607985 358.02273178 99.27466297 C356.46111869 99.27724574 354.89950625 99.28025865 353.33789474 99.28366637 C349.03505668 99.29174993 344.7322353 99.2935267 340.42939055 99.29426384 C335.79328883 99.29611203 331.1571958 99.30365815 326.52109909 99.31039906 C316.37863654 99.32399229 306.23617794 99.33000857 296.0937078 99.33440971 C289.76361936 99.33717033 283.43353246 99.34140734 277.10344505 99.34591389 C259.58546895 99.35810759 242.06749407 99.36840687 224.54951382 99.37178898 C223.42790389 99.37200854 222.30629396 99.37222811 221.15069585 99.37245433 C219.4642035 99.37278175 219.4642035 99.37278175 217.7436406 99.37311578 C215.46523646 99.37355925 213.18683233 99.37400581 210.90842819 99.37445545 C209.21316925 99.3747876 209.21316925 99.3747876 207.48366264 99.37512645 C189.16498568 99.37907566 170.84634846 99.39653298 152.52768686 99.41981497 C133.73093505 99.44351225 114.9342032 99.45599008 96.13743621 99.4571569 C85.57939065 99.45807455 75.02139688 99.46384946 64.46336555 99.48197651 C55.47407267 99.49735556 46.48484758 99.50251094 37.49554404 99.49423841 C32.90750008 99.49032417 28.31959274 99.49129912 23.73156548 99.50529575 C19.53268148 99.51798833 15.33403743 99.51687823 11.13515399 99.50470504 C9.61495627 99.50273996 8.09474182 99.50586372 6.57456764 99.5145494 C4.50952513 99.52560262 2.44533533 99.51818232 0.38031673 99.50615788 C-0.76709077 99.50675496 -1.91449827 99.50735205 -3.09667569 99.50796723 C-7.37091007 99.0043323 -10.75270895 97.54926828 -13.91310501 94.59906483 C-17.67685782 89.67723423 -18.42235128 87.00930179 -18.44557571 80.93402576 C-18.45214691 80.19234653 -18.45871811 79.4506673 -18.46548843 78.68651295 C-18.48523521 76.226373 -18.49688805 73.76629418 -18.50685501 71.30609608 C-18.51093054 70.46591183 -18.51500607 69.62572758 -18.51920509 68.7600832 C-18.54007334 64.31171889 -18.55437085 59.86338548 -18.56373978 55.4149828 C-18.57479606 50.82378443 -18.6091845 46.23307183 -18.64891148 41.64204502 C-18.67508146 38.1092283 -18.68343202 34.57652714 -18.68702126 31.04362202 C-18.69188753 29.35156702 -18.70350274 27.65951719 -18.72205925 25.96755695 C-18.746456 23.59531397 -18.74548507 21.22432503 -18.73854446 18.85199451 C-18.75135452 18.15670139 -18.76416458 17.46140827 -18.77736282 16.74504566 C-18.72439476 11.7620147 -17.3534714 8.9884488 -14.26857376 5.13422108 C-9.51858282 0.84764389 -6.31010957 0.00984498 0 0 Z " fill="#FD4E09" transform="translate(316.2685737609863,887.8657789230347)"/>
<path d="M0 0 C1.57347275 -0.00504852 3.14693975 -0.01227971 4.7203936 -0.02149814 C9.03299827 -0.0404039 13.34503486 -0.02819632 17.65762508 -0.01077521 C22.31277051 0.00260465 26.96783316 -0.01284047 31.62297058 -0.02459717 C40.73766678 -0.04297305 49.85214856 -0.03446196 58.96683807 -0.01650894 C66.37411652 -0.00248229 73.78133678 0.00140971 81.18862724 -0.00195122 C82.77008872 -0.00266738 82.77008872 -0.00266738 84.38349892 -0.00339801 C86.52530354 -0.00442434 88.66710815 -0.0054797 90.80891275 -0.00656378 C109.74618147 -0.01513063 128.68334668 0.00154417 147.62059021 0.03126526 C165.99758756 0.06010669 184.37443581 0.06718423 202.75144958 0.05177307 C222.76299659 0.03501416 242.7744728 0.03097324 262.78602165 0.04848343 C264.9196335 0.05032782 267.05324536 0.05216255 269.18685722 0.0539875 C270.76152891 0.05535564 270.76152891 0.05535564 272.36801215 0.05675141 C279.76722005 0.06235841 287.16639341 0.05904813 294.56559944 0.05244255 C303.58149868 0.04471321 312.59725111 0.05144773 321.61312074 0.07661759 C326.21349717 0.08912139 330.81364494 0.09524844 335.41403008 0.08407593 C339.62519348 0.07404172 343.83590067 0.08247552 348.04700851 0.10565711 C349.57042932 0.11082013 351.09389095 0.10924779 352.61729402 0.10026246 C366.77003121 0.02373044 366.77003121 0.02373044 372.62083435 4.62818909 C377.07520532 9.83637669 377.7436522 15.60407297 377.78196716 22.19752502 C377.78693207 22.84850159 377.79189697 23.49947815 377.79701233 24.17018127 C377.81158164 26.3176531 377.81842798 28.46505101 377.82395935 30.61256409 C377.82971611 32.11225891 377.83547377 33.61195374 377.8412323 35.11164856 C377.85172812 38.25551189 377.85757973 41.39934977 377.86106873 44.54322815 C377.86654355 48.55566452 377.89055563 52.56775988 377.91904068 56.58008957 C377.93774251 59.67891902 377.9428767 62.77766766 377.9444046 65.87654877 C377.94741582 67.35481374 377.95539217 68.8330778 377.96858978 70.31128693 C378.04393125 79.4003896 377.71236633 86.47563579 372.93333435 94.44068909 C365.90951396 101.08484351 356.50057558 100.05302791 347.4694519 100.00914001 C345.92073282 100.01259921 344.3720162 100.01736554 342.82330471 100.02332175 C338.57923627 100.03582525 334.33537066 100.02966435 330.09130156 100.02036309 C325.50979285 100.01357034 320.92831882 100.02405492 316.34681702 100.03230286 C307.3765512 100.04563963 298.40636071 100.04276278 289.43609195 100.03406493 C282.14609951 100.02728901 274.85612818 100.02637127 267.5661335 100.02963638 C266.00965027 100.03032593 266.00965027 100.03032593 264.42172294 100.03102941 C262.31374032 100.03198859 260.20575771 100.03296123 258.09777511 100.03394718 C238.33363469 100.04250081 218.56953603 100.03266715 198.80540247 100.01654609 C181.84582826 100.00314095 164.88631565 100.00547267 147.92674255 100.01930237 C128.23163449 100.03535524 108.53656301 100.04167892 88.84144932 100.03246558 C86.74153936 100.03150993 84.6416294 100.03056682 82.54171944 100.02963638 C81.50852297 100.02917356 80.47532651 100.02871073 79.41082106 100.02823388 C72.12883635 100.02564326 64.84687484 100.03001649 57.56489372 100.03707504 C48.69175513 100.04548689 39.81869617 100.04321643 30.94556671 100.02723281 C26.41812861 100.01934618 21.89082329 100.01626523 17.36338615 100.02618027 C13.21891554 100.0351194 9.0747008 100.03020725 4.93025339 100.01424761 C3.43105341 100.01089652 1.93183181 100.01260127 0.43264573 100.01987498 C-15.38392972 100.09072689 -15.38392972 100.09072689 -22.19166565 94.19068909 C-26.09295297 89.62060966 -26.67519904 86.21888107 -26.65382385 80.29273987 C-26.65893478 79.56052216 -26.66404572 78.82830444 -26.66931152 78.07389832 C-26.68319402 75.65701589 -26.6822516 73.24041911 -26.6799469 70.82350159 C-26.68383497 69.13965245 -26.68816987 67.45580429 -26.69293213 65.7719574 C-26.70039173 62.24304526 -26.70010524 58.71423316 -26.69483948 55.18531799 C-26.68904938 50.67046483 -26.70596581 46.15602252 -26.72918415 41.64123726 C-26.74394147 38.16331094 -26.74479041 34.68548306 -26.74167442 31.20753098 C-26.74218677 29.54341189 -26.74740825 27.87928717 -26.75748634 26.21519852 C-26.76987054 23.88400625 -26.76304745 21.55360764 -26.7514801 19.22242737 C-26.76294571 18.19822693 -26.76294571 18.19822693 -26.77464294 17.15333557 C-26.72432358 12.54815645 -26.01888484 9.41785812 -23.37916565 5.62818909 C-16.75293773 -0.74493637 -8.58307278 -0.07241671 0 0 Z " fill="#FD5808" transform="translate(324.37916564941406,709.3718109130859)"/>
<path d="M0 0 C0.77463951 -0.00205263 1.54927901 -0.00410527 2.34739244 -0.0062201 C4.96453227 -0.01191163 7.58161984 -0.01043021 10.1987648 -0.00901413 C12.0855243 -0.01159653 13.97228326 -0.01460934 15.85904145 -0.01801753 C21.06067265 -0.02610546 26.26229005 -0.0278781 31.46392679 -0.028615 C37.06733605 -0.03046244 42.67073811 -0.0380082 48.27414322 -0.04475021 C60.53437418 -0.05834675 72.79460188 -0.0643603 85.05483913 -0.06876087 C92.70625185 -0.07152104 100.3576633 -0.07575798 108.00907516 -0.08026505 C129.18228839 -0.09245939 150.35550053 -0.1027938 171.52871704 -0.10614014 C172.89821164 -0.10636177 174.26770625 -0.10658355 175.63720085 -0.10680549 C177.01002273 -0.10702613 178.38284461 -0.10724661 179.75566649 -0.10746694 C182.50983159 -0.10790949 185.26399668 -0.10835661 188.01816177 -0.10880661 C188.70103575 -0.108916 189.38390974 -0.10902539 190.08747687 -0.1091381 C212.23234307 -0.11276916 234.37717655 -0.12869074 256.52203022 -0.15199697 C279.92934031 -0.17658688 303.33662647 -0.19030586 326.74395204 -0.19150805 C339.50582179 -0.19242577 352.26764871 -0.19820244 365.02950668 -0.21632767 C375.89550298 -0.23170557 386.76144319 -0.23686279 397.62744829 -0.22858956 C403.17355837 -0.22467488 408.71955543 -0.22565253 414.2656517 -0.23964691 C419.34105784 -0.25233673 424.41626545 -0.2512317 429.49167112 -0.2390562 C431.32951536 -0.23709065 433.16737343 -0.240217 435.00519821 -0.24890056 C437.50102195 -0.25994814 439.99613949 -0.25253671 442.49194336 -0.24050903 C443.20748693 -0.24810423 443.92303051 -0.25569942 444.66025722 -0.26352477 C451.13867015 -0.19600606 455.67979166 1.31356546 460.31015396 5.94392776 C464.80465229 12.4930539 464.79382106 18.50340309 464.76327896 26.19002151 C464.76519241 27.25253632 464.76710587 28.31505112 464.7690773 29.40976334 C464.77043511 31.6513785 464.76676693 33.89300164 464.75839615 36.13460159 C464.74770176 39.55364655 464.75829993 42.97216482 464.77109146 46.39119339 C464.76976959 48.57413725 464.76720662 50.75708079 464.76327896 52.94002151 C464.76732742 53.95688538 464.77137589 54.97374924 464.77554703 56.02142715 C464.73143688 62.74621686 464.68256167 68.53315914 460.18515396 73.88142776 C455.01603757 78.20906009 451.41508022 79.57418209 444.68394947 79.5117445 C443.50794904 79.51873438 443.50794904 79.51873438 442.30819103 79.52586547 C439.67110817 79.53785251 437.034537 79.52840584 434.39744949 79.51910782 C432.49174941 79.52327911 430.5860518 79.5287555 428.68035883 79.53542763 C423.43566291 79.54992776 418.19112353 79.54562327 412.94641888 79.53826082 C407.29329063 79.53354274 401.64019691 79.54602691 395.98707962 79.55627823 C384.90918798 79.57349818 373.83135297 79.57429964 362.75345141 79.56906532 C353.75189899 79.56502842 344.75036334 79.56646148 335.74881172 79.57181358 C333.82910106 79.57293622 333.82910106 79.57293622 331.87060837 79.57408153 C329.27091642 79.57561296 326.67122448 79.57715131 324.07153254 79.5786965 C306.60965506 79.58852939 289.14778852 79.59268464 271.68591022 79.58507061 C271.00291018 79.58477344 270.31991013 79.58447626 269.61621311 79.58417008 C264.0695537 79.58172108 258.52289437 79.57910953 252.97623505 79.57648595 C231.33856983 79.56638274 209.70098219 79.57473945 188.06332779 79.5979805 C163.75955707 79.62404291 139.45584667 79.63685426 115.15205854 79.62979275 C102.28125598 79.62629495 89.41051715 79.62856957 76.53972435 79.64604378 C65.58333019 79.660734 54.62704465 79.66144287 43.6706527 79.64397287 C38.0780457 79.63543436 32.48563298 79.63338271 26.89303589 79.64862442 C21.7763743 79.66239669 16.6600748 79.65780492 11.54343455 79.63838518 C9.68952022 79.63460185 7.83557739 79.63761373 5.98168827 79.64799684 C3.46641868 79.66108566 0.95241389 79.64965672 -1.56280041 79.63199902 C-2.64882482 79.64647478 -2.64882482 79.64647478 -3.75678912 79.66124299 C-8.79111478 79.58840614 -11.60878898 78.26130306 -15.50234604 75.13142776 C-19.45674696 70.74952404 -20.61880675 67.69120317 -20.67934799 61.85310745 C-20.69218323 60.77478653 -20.70501846 59.69646561 -20.71824265 58.58546829 C-20.72562958 57.41985367 -20.73301651 56.25423904 -20.74062729 55.05330276 C-20.74869904 53.85336685 -20.75677078 52.65343094 -20.76508713 51.41713333 C-20.77892679 48.8751355 -20.78964946 46.33311908 -20.79751205 43.79109573 C-20.8147163 39.91069024 -20.85860449 36.0311385 -20.90273666 32.15095901 C-20.9128644 29.68091319 -20.92138025 27.21086013 -20.92812729 24.74080276 C-20.95438942 23.00452621 -20.95438942 23.00452621 -20.9811821 21.23317337 C-20.96348801 14.6351349 -20.52901303 10.4518778 -16.50234604 5.13142776 C-10.97229532 0.84281701 -6.81619042 -0.01663804 0 0 Z " fill="#FD5A07" transform="translate(540.5023460388184,431.8685722351074)"/>
<path d="M0 0 C83.82 0 167.64 0 254 0 C254 29.7 254 59.4 254 90 C170.18 90 86.36 90 0 90 C0 60.3 0 30.6 0 0 Z " fill="#FC6607" transform="translate(704,150)"/>
<path d="M0 0 C83.82 0 167.64 0 254 0 C254 24.09 254 48.18 254 73 C170.18 73 86.36 73 0 73 C0 48.91 0 24.82 0 0 Z " fill="#F96D07" transform="translate(704,43)"/>
<path d="M0 0 C6.49238991 5.0277767 11.30116997 11.16956755 14.3203125 18.796875 C14.7328125 19.828125 15.1453125 20.859375 15.5703125 21.921875 C17.71870442 33.02189991 16.82268726 43.17431348 11.03515625 52.97265625 C4.5738382 62.24167797 -4.3971377 69.6506308 -15.6796875 71.796875 C-29.16061809 72.79652028 -40.1254554 71.2427361 -50.94140625 62.375 C-58.91537135 55.13571484 -63.4191416 46.49608037 -64.6171875 35.671875 C-65.0949468 24.55311319 -61.74041818 15.7139397 -55.4921875 6.609375 C-40.17627213 -8.70654037 -18.44727554 -11.9818317 0 0 Z " fill="#FD6E05" transform="translate(442.6796875,439.203125)"/>
<path d="M0 0 C7.90335048 7.34546692 12.08938532 16.86455896 13.5625 27.5078125 C13.93152085 38.90133139 9.75470756 49.73948054 2 58.0625 C-7.80419427 67.08582924 -18.37033447 69.95941774 -31.4453125 69.62890625 C-42.3631502 68.95766854 -51.77581749 62.78206543 -59 54.875 C-65.27589593 47.08129228 -68.42007203 37.56837358 -68.0546875 27.5 C-66.45300779 15.67221139 -61.21415996 5.37457285 -51.875 -2.1875 C-35.72743664 -13.18564355 -15.21831265 -12.04086275 0 0 Z " fill="#FD7505" transform="translate(324.75,441.75)"/>
<path d="M0 0 C0.76539093 -0.00511093 1.53078186 -0.01022186 2.31936646 -0.01548767 C4.82513462 -0.02927703 7.33062441 -0.02843494 9.83642578 -0.02612305 C11.59465637 -0.03001596 13.35288603 -0.03435185 15.1111145 -0.03910828 C18.78764908 -0.04654769 22.46408758 -0.04629589 26.140625 -0.04101562 C30.82983948 -0.03522547 35.51865839 -0.0521521 40.20780754 -0.0753603 C43.83686587 -0.09016054 47.46583032 -0.09096079 51.09491348 -0.08785057 C52.82271228 -0.08836067 54.55051676 -0.09353935 56.27828598 -0.10366249 C77.64050821 -0.21347535 77.64050821 -0.21347535 85.34423828 5.5871582 C89.62362068 10.07529097 91.08332398 13.55963058 91.34423828 19.7121582 C91.12818034 26.63540629 89.02622649 30.10699981 84.15673828 35.0871582 C78.14555664 39.13314585 71.77721496 39.57351623 64.68994141 39.53344727 C63.91158432 39.5369519 63.13322723 39.54045654 62.33128357 39.54406738 C59.7834251 39.55279943 57.2358491 39.54706595 54.68798828 39.5402832 C52.90254666 39.54163231 51.11710541 39.54357488 49.33166504 39.54608154 C45.59965498 39.54902126 41.86774102 39.54477234 38.13574219 39.53540039 C33.36793619 39.52400657 28.60035543 39.53057222 23.83255768 39.54254532 C20.14868493 39.54979509 16.464865 39.5474617 12.7809906 39.54228973 C11.02363559 39.54096185 9.26627568 39.54257054 7.50892639 39.54724884 C5.0470013 39.55236555 2.58543382 39.54453224 0.12353516 39.53344727 C-0.5925441 39.53749573 -1.30862335 39.54154419 -2.04640198 39.54571533 C-9.43222464 39.48454865 -16.43786309 38.30167921 -22.09326172 33.2746582 C-26.15543799 27.55829674 -27.9125628 22.50239795 -26.73388672 15.52856445 C-25.0320619 9.54104663 -21.10102485 5.74157114 -16.09326172 2.2746582 C-10.65896859 0.62339616 -5.68471018 -0.02001659 0 0 Z " fill="#010101" transform="translate(857.09326171875,59.725341796875)"/>
<path d="M0 0 C4.63183201 3.21060444 7.27639682 6.24230603 8.67578125 11.83984375 C8.89611851 18.1394862 8.01533262 23.05521018 3.67578125 27.83984375 C-0.89358055 31.73724058 -5.02985676 33.63826263 -11.0859375 33.26171875 C-16.21538805 32.29491132 -20.02940524 30.13465726 -23.69921875 26.46484375 C-26.90935281 21.27924258 -27.78754351 17.0707447 -26.9296875 11.0859375 C-25.61215573 6.19831965 -22.78717597 2.91030025 -18.76171875 -0.03515625 C-12.67544901 -2.84420382 -6.08461839 -3.03719607 0 0 Z " fill="#030303" transform="translate(804.32421875,64.16015625)"/>
<path d="M0 0 C4.04045031 4.57208851 5.24364001 9.01051654 5 15 C4.15983315 19.50781831 2.57875777 22.82284197 -0.875 25.875 C-6.13115357 29.44918443 -10.58317948 30.95720527 -17 30 C-22.26049576 28.23377184 -26.03438331 25.79061157 -29 21 C-31.41671739 15.93640166 -31.44106824 11.34589833 -30 6 C-27.69599105 1.38308631 -24.75853201 -1.8586606 -20 -4 C-12.62710489 -6.39120923 -6.04196306 -4.2990891 0 0 Z " fill="#030202" transform="translate(754,67)"/>
<path d="M0 0 C0.99 0 1.98 0 3 0 C3 1.65 3 3.3 3 5 C2.01 5 1.02 5 0 5 C-0.99 5.33 -1.98 5.66 -3 6 C-1.125 1.125 -1.125 1.125 0 0 Z " fill="#0B0A0A" transform="translate(678,22)"/>
<path d="M0 0 C0.66 0.33 1.32 0.66 2 1 C0.08864614 4.53600465 -1.62642766 6.78972846 -5 9 C-5.33 8.01 -5.66 7.02 -6 6 C-5.195625 5.38125 -4.39125 4.7625 -3.5625 4.125 C-0.96125481 2.25835959 -0.96125481 2.25835959 0 0 Z " fill="#0D0B0B" transform="translate(982,978)"/>
<path d="M0 0 C0 3.54404336 -0.60989485 4.10267905 -2.875 6.6875 C-3.40867187 7.31011719 -3.94234375 7.93273437 -4.4921875 8.57421875 C-6 10 -6 10 -8 10 C-7.44449305 6.40094092 -6.25112752 5.00090201 -3.4375 2.75 C-2.79683594 2.22921875 -2.15617187 1.7084375 -1.49609375 1.171875 C-1.00238281 0.78515625 -0.50867188 0.3984375 0 0 Z " fill="#101010" transform="translate(448,498)"/>
</svg>
